<svg width="37" height="37" viewBox="0 0 37 37" fill="none" xmlns="http://www.w3.org/2000/svg">
<path d="M18.5312 4.48621C13.4282 4.48621 9.28115 8.63329 9.28115 13.7362V18.1916C9.28115 19.132 8.88032 20.5658 8.4024 21.3675L6.62949 24.312C5.5349 26.1312 6.29032 28.1508 8.29449 28.8291C14.9391 31.0491 22.1078 31.0491 28.7524 28.8291C30.6178 28.2125 31.4349 26.0079 30.4174 24.312L28.6445 21.3675C28.182 20.5658 27.7812 19.132 27.7812 18.1916V13.7362C27.7812 8.64871 23.6187 4.48621 18.5312 4.48621Z" stroke="#006438" stroke-width="2" stroke-miterlimit="10" stroke-linecap="round"/>
<path d="M21.3829 4.93334C20.905 4.79459 20.4116 4.68668 19.9029 4.62501C18.4229 4.44001 17.0045 4.54793 15.6787 4.93334C16.1258 3.79251 17.2358 2.99084 18.5308 2.99084C19.8258 2.99084 20.9358 3.79251 21.3829 4.93334Z" stroke="#006438" stroke-width="2" stroke-miterlimit="10" stroke-linecap="round" stroke-linejoin="round"/>
<path d="M23.1562 29.3842C23.1562 31.9279 21.075 34.0092 18.5312 34.0092C17.2671 34.0092 16.0954 33.485 15.2629 32.6525C14.4304 31.82 13.9062 30.6483 13.9062 29.3842" stroke="#006438" stroke-width="2" stroke-miterlimit="10"/>
</svg>
